# xmcd
#
# Track frame offsets:
#	150
#	17617
#	43765
#	62842
#	81020
#	99198
#	117674
#	140146
#	162009
#	177922
#
# Disc length: 2572 seconds
#
# Revision: 0
# Processed by: cddbd v1.5.1PL2 Copyright (c) Steve Scherf et al.
# Submitted via: dBpowerAMP V4.0
#
DISCID=800a0a0a
DTITLE=MATERIA PRIMA - Sin volver la vista atrás
DYEAR=1900
DGENRE=
TTITLE0=Cuando quieras volver
TTITLE1=Puedes mas tu amor
TTITLE2=Tenias razon
TTITLE3=Laura
TTITLE4=Noches de verano
TTITLE5=Daria la vida por ti
TTITLE6=Te quiero
TTITLE7=Quiero vivir contigo
TTITLE8=Luna de hiel
TTITLE9=Y es que te quiero
EXTD=
EXTT0=
EXTT1=
EXTT2=
EXTT3=
EXTT4=
EXTT5=
EXTT6=
EXTT7=
EXTT8=
EXTT9=
PLAYORDER=
